HIERARCHY
ROOT root
{
	OFFSET 0.000000 0.000000 0.000000
	CHANNELS 6 Xposition Yposition Zposition Zrotation Yrotation Xrotation
	JOINT lhip
	{
		OFFSET 0.058581 -0.082280 -0.017664
		CHANNELS 3 Zrotation Yrotation Xrotation
		JOINT lknee
		{
			OFFSET 0.043451 -0.386469 0.008037
			CHANNELS 3 Zrotation Yrotation Xrotation
			JOINT lankle
			{
				OFFSET -0.014790 -0.426874 -0.037428
				CHANNELS 3 Zrotation Yrotation Xrotation
				JOINT ltoe
				{
					OFFSET 0.041054 -0.060286 0.122042
					CHANNELS 3 Zrotation Yrotation Xrotation
					End Site
					{
						OFFSET 0.000000 0.000000 0.000000
					}
				}
			}
		}
	}
	JOINT rhip
	{
		OFFSET -0.060310 -0.090513 -0.013543
		CHANNELS 3 Zrotation Yrotation Xrotation
		JOINT rknee
		{
			OFFSET -0.043257 -0.383688 -0.004843
			CHANNELS 3 Zrotation Yrotation Xrotation
			JOINT rankle
			{
				OFFSET 0.019056 -0.420046 -0.034562
				CHANNELS 3 Zrotation Yrotation Xrotation
				JOINT rtoe
				{
					OFFSET -0.034840 -0.062106 0.130323
					CHANNELS 3 Zrotation Yrotation Xrotation
					End Site
					{
						OFFSET 0.000000 0.000000 0.000000
					}
				}
			}
		}
	}
	JOINT lowerback
	{
		OFFSET 0.004439 0.124404 -0.038385
		CHANNELS 3 Zrotation Yrotation Xrotation
		JOINT upperback
		{
			OFFSET 0.004488 0.137956 0.026820
			CHANNELS 3 Zrotation Yrotation Xrotation
			JOINT chest
			{
				OFFSET -0.002265 0.056032 0.002855
				CHANNELS 3 Zrotation Yrotation Xrotation
				JOINT lowerneck
				{
					OFFSET -0.013390 0.211636 -0.033468
					CHANNELS 3 Zrotation Yrotation Xrotation
					JOINT upperneck
					{
						OFFSET 0.010113 0.088937 0.050410
						CHANNELS 3 Zrotation Yrotation Xrotation
						End Site
						{
							OFFSET 0.000000 0.000000 0.000000
						}
					}
				}
				JOINT lclavicle
				{
					OFFSET 0.071702 0.114000 -0.018898
					CHANNELS 3 Zrotation Yrotation Xrotation
					JOINT lshoulder
					{
						OFFSET 0.122921 0.045205 -0.019046
						CHANNELS 3 Zrotation Yrotation Xrotation
						JOINT lelbow
						{
							OFFSET 0.255332 -0.015649 -0.022946
							CHANNELS 3 Zrotation Yrotation Xrotation
							JOINT lwrist
							{
								OFFSET 0.265709 0.012698 -0.007375
								CHANNELS 3 Zrotation Yrotation Xrotation
								End Site
								{
									OFFSET 0.000000 0.000000 0.000000
								}
							}
						}
					}
				}
				JOINT rclavicle
				{
					OFFSET -0.082954 0.112472 -0.023707
					CHANNELS 3 Zrotation Yrotation Xrotation
					JOINT rshoulder
					{
						OFFSET -0.113228 0.046853 -0.008472
						CHANNELS 3 Zrotation Yrotation Xrotation
						JOINT relbow
						{
							OFFSET -0.260127 -0.014369 -0.031269
							CHANNELS 3 Zrotation Yrotation Xrotation
							JOINT rwrist
							{
								OFFSET -0.269108 0.006794 -0.006027
								CHANNELS 3 Zrotation Yrotation Xrotation
								End Site
								{
									OFFSET 0.000000 0.000000 0.000000
								}
							}
						}
					}
				}
			}
		}
	}
}
MOTION
Frames: 16
Frame Time: 0.033333
0.636478 0.834107 1.055951 92.241871 -0.356893 85.059074 2.331057 -0.408877 5.088390 -1.643632 -9.833149 1.180294 1.424149 1.611471 -14.386927 0.000000 -0.000000 0.000000 -1.825383 -3.569778 4.053599 -0.854373 -2.565765 5.300261 1.969030 -6.341259 -18.679077 0.000000 -0.000000 0.000000 -1.531067 2.804983 -0.254389 -0.200077 -3.462968 9.343748 -2.984374 0.216147 0.933411 7.274434 0.805557 5.091701 5.456659 -8.959105 8.377046 -27.631524 -3.319745 4.482405 -55.108702 -8.049272 14.476668 5.717815 -27.990054 14.864726 -16.624232 -10.294145 -4.460603 25.408341 3.663350 4.127637 66.239994 2.095091 11.962286 -20.891387 29.436109 -5.927144 20.073768 6.209410 -14.270549 
0.636514 0.833774 1.055674 92.282130 -0.297928 85.037277 2.424075 -0.397395 5.062705 -1.695746 -9.932913 1.250819 1.237874 1.641544 -14.413964 0.000000 -0.000000 0.000000 -1.741733 -3.600027 4.079239 -0.855166 -2.399763 5.301238 2.108738 -6.487369 -18.858019 0.000000 -0.000000 0.000000 -1.343918 2.681065 -0.087156 -0.350831 -3.381668 8.860872 -2.992206 0.257352 1.283880 7.336361 0.850132 4.775099 5.444992 -9.151340 8.902471 -27.544988 -3.399101 4.671821 -55.185977 -7.978353 14.377748 5.834313 -28.234242 15.040275 -16.552129 -10.249160 -4.815034 25.354264 3.742038 4.278428 66.395508 2.060954 12.132186 -21.030418 29.633886 -5.825923 19.969760 6.265220 -14.745353 
0.636277 0.833546 1.055701 92.310936 -0.310075 84.966562 2.412450 -0.393695 5.100361 -1.638924 -9.984373 1.242824 1.367345 1.630642 -14.418252 0.000000 -0.000000 0.000000 -1.742456 -3.598449 4.122300 -0.856952 -2.320252 5.317310 2.061153 -6.523567 -18.888005 0.000000 -0.000000 0.000000 -1.341388 2.652073 0.010840 -0.357949 -3.393589 8.887042 -2.995303 0.315819 1.266380 7.317096 0.811413 4.761041 5.539405 -9.255196 8.769152 -27.761588 -3.558635 4.666460 -55.010894 -7.942061 14.424635 5.808475 -28.036654 14.986947 -16.459820 -10.387714 -4.760115 25.442607 3.891424 4.260691 66.349003 1.962544 12.126226 -21.045274 29.678435 -5.904494 19.770004 6.244039 -14.601571 
0.636141 0.833380 1.055658 92.354526 -0.320297 84.892290 2.426894 -0.309988 5.105200 -1.721657 -10.065390 1.346155 1.134201 1.630300 -14.451498 0.000000 -0.000000 0.000000 -1.768255 -3.624611 4.150490 -0.832012 -2.399706 5.360535 2.034562 -6.521313 -18.994505 0.000000 -0.000000 0.000000 -1.286032 2.684147 0.116429 -0.368821 -3.372173 8.880933 -3.011263 0.169968 1.201509 7.327833 0.765197 4.836652 5.530789 -9.185799 8.715166 -28.299791 -3.764674 4.875399 -54.487224 -7.687719 14.355998 5.889701 -28.272369 14.531742 -16.127288 -10.357074 -4.397046 25.709758 4.211179 4.520723 66.013186 1.944628 12.170927 -20.831833 29.685839 -5.882206 19.567755 6.403495 -14.356362 
0.635778 0.833113 1.055647 92.417414 -0.344565 84.789783 2.426953 -0.307754 5.131659 -1.740363 -10.115218 1.402976 1.217390 1.634732 -14.482739 0.000000 -0.000000 0.000000 -1.773149 -3.613719 4.213332 -0.856877 -2.390823 5.422834 2.019772 -6.524122 -19.058015 0.000000 -0.000000 0.000000 -1.310364 2.677376 0.126207 -0.396784 -3.423347 9.060178 -2.995949 0.233170 1.145413 7.323879 0.773715 4.920418 5.591595 -9.157931 8.682634 -28.484173 -4.112675 5.099232 -54.229280 -7.680801 14.340178 5.819732 -28.192417 14.368877 -15.771882 -10.280165 -4.345453 25.878953 4.518286 4.691729 65.902998 1.955170 12.107277 -20.844495 29.653513 -5.927078 19.336602 6.454335 -14.224649 
0.635482 0.832929 1.055451 92.514263 -0.389689 84.697234 2.405357 -0.342170 5.137820 -1.777287 -10.046436 1.454227 1.198535 1.577551 -14.422798 0.000000 -0.000000 0.000000 -1.816174 -3.566680 4.265150 -0.853242 -2.472385 5.460864 1.956822 -6.607173 -19.119506 0.000000 -0.000000 0.000000 -1.259810 2.663258 0.102686 -0.450475 -3.500918 9.276370 -3.050840 0.145341 1.163762 7.200587 0.795652 4.932701 5.649986 -9.062945 8.420132 -28.815575 -4.537989 5.355293 -53.855891 -7.718290 14.351943 5.815201 -27.797299 13.682246 -15.173639 -10.604972 -4.307981 26.156648 5.038438 4.825274 65.581536 2.025987 12.315756 -20.590513 29.553774 -5.861141 19.173874 6.494125 -14.328735 
0.635299 0.832743 1.055214 92.667787 -0.422770 84.493319 2.408818 -0.214855 5.252794 -1.847960 -10.127724 1.550525 0.988762 1.415442 -14.456346 0.000000 -0.000000 0.000000 -1.881781 -3.651026 4.469329 -0.818813 -2.568655 5.463831 1.897475 -6.644637 -19.162735 0.000000 -0.000000 0.000000 -1.286530 2.587772 0.120867 -0.493184 -3.680312 9.767218 -2.997732 0.112141 0.996769 7.038245 0.711031 5.171116 5.772332 -8.844195 7.579104 -29.329864 -5.262450 5.790330 -53.401967 -7.484278 14.338309 6.240597 -27.887696 13.059610 -14.950083 -10.526295 -4.196415 26.544356 5.768950 5.192735 65.096327 2.168065 12.287914 -20.422848 29.517739 -5.804809 19.182328 6.586227 -14.120173 
0.635360 0.832716 1.054852 92.771395 -0.490663 84.195702 2.364729 -0.114249 5.537866 -1.852973 -10.329824 1.550808 0.915248 1.411381 -14.451209 0.000000 -0.000000 0.000000 -1.976024 -3.656021 4.804394 -0.806636 -2.563947 5.430108 1.804986 -6.715238 -19.285969 0.000000 -0.000000 0.000000 -1.321050 2.585971 0.260919 -0.552256 -3.779233 10.077357 -2.971473 0.081433 0.946411 7.085164 0.804557 5.229032 5.916836 -8.692107 7.227722 -29.728004 -5.882220 6.116793 -52.970061 -7.396681 14.332693 6.118075 -27.651442 12.616336 -13.972786 -10.505584 -3.622704 26.914611 6.571697 5.668107 64.676437 2.289828 12.371900 -20.117325 29.419454 -5.871448 18.500101 6.723435 -13.960490 
0.635676 0.832553 1.054389 92.973887 -0.495748 83.877060 2.422742 -0.135226 5.723211 -1.955301 -10.384313 1.740844 0.800559 1.381963 -14.499448 0.000000 -0.000000 0.000000 -1.943135 -3.406403 5.171722 -0.804381 -2.804989 5.432614 1.663703 -7.009565 -19.375157 0.000000 -0.000000 0.000000 -1.312666 2.535281 0.266469 -0.593929 -3.918803 10.710830 -2.938282 0.079420 0.891868 6.984862 0.641333 5.472802 6.225364 -8.741883 6.217500 -30.038319 -6.563127 6.450339 -52.618163 -7.437893 14.323832 6.148153 -27.582166 12.281668 -13.813906 -10.388329 -3.241682 27.235490 7.265995 6.056459 64.252568 2.586895 12.340400 -19.756640 29.356783 -5.614406 18.221158 6.638257 -13.615600 
0.635394 0.832586 1.053875 93.147191 -0.524348 83.354081 2.432833 -0.182440 6.080085 -2.060044 -10.609253 2.038488 0.715338 1.446259 -14.611691 0.000000 -0.000000 0.000000 -2.015263 -3.455390 5.644054 -0.780685 -2.850296 5.606707 1.512020 -7.159657 -19.489091 0.000000 -0.000000 0.000000 -1.321239 2.553636 0.332178 -0.691955 -4.025898 11.594428 -2.883665 0.200385 0.959126 7.038506 0.500777 5.567183 6.791245 -8.658242 5.419847 -30.411325 -7.516258 6.753792 -52.206905 -7.473843 14.411340 6.373417 -27.644925 11.881417 -13.117047 -10.311397 -3.189964 27.596032 8.269874 6.469996 63.693651 2.727935 12.229721 -19.386961 29.679384 -5.318914 17.998606 6.617597 -13.472676 
0.634874 0.832616 1.053443 93.218022 -0.573689 83.015144 2.398378 -0.243436 6.278119 -2.103679 -10.520910 2.194906 0.594062 1.402596 -14.717908 0.000000 -0.000000 0.000000 -2.122482 -3.552098 5.821390 -0.791190 -2.944732 5.877049 1.564774 -7.001351 -19.634775 0.000000 -0.000000 0.000000 -1.328048 2.621951 0.607005 -0.746419 -4.110349 12.043308 -2.846401 0.259437 0.817018 7.086224 0.455420 5.709081 7.085328 -8.746897 4.879557 -30.653463 -8.122339 6.909828 -51.950706 -7.635785 14.419199 6.326640 -27.295566 11.446800 -12.989281 -10.514896 -3.000752 27.796497 8.893246 6.882151 63.372510 3.058414 12.266360 -19.068719 29.606245 -4.952657 18.290952 6.725478 -13.345688 
0.634471 0.832653 1.053074 93.307503 -0.624564 82.699353 2.391289 -0.203839 6.481499 -2.169587 -10.519232 2.372196 0.498993 1.289964 -14.749739 0.000000 -0.000000 0.000000 -2.225459 -3.592926 6.085909 -0.788527 -3.073765 5.995147 1.567227 -6.914890 -19.656598 0.000000 -0.000000 0.000000 -1.238746 2.684313 0.785998 -0.859107 -4.105985 12.494803 -2.891519 0.268882 0.884467 7.105523 0.142047 5.894550 7.538773 -8.849024 4.218977 -30.781353 -8.680729 7.049477 -51.712484 -7.713745 14.450769 6.454821 -27.411869 11.072271 -13.027128 -10.493710 -2.704660 27.848374 9.580310 6.974272 63.234749 3.161478 12.303207 -18.650406 29.652614 -4.645767 18.645505 6.611269 -13.207563 
0.633937 0.832720 1.052788 93.269891 -0.640225 82.414793 2.409381 -0.131921 6.627197 -2.220767 -10.503664 2.610335 0.493143 1.239096 -14.941512 0.000000 -0.000000 0.000000 -2.262133 -3.626955 6.219088 -0.813175 -2.975713 6.244380 1.466490 -6.838066 -19.771750 0.000000 -0.000000 0.000000 -1.100150 2.711187 1.091296 -0.968271 -4.068019 12.854581 -2.923325 0.382629 0.760697 7.192488 0.112682 6.004228 7.968603 -8.738707 3.578540 -31.156883 -9.128764 7.304555 -51.293125 -7.615003 14.301783 6.624449 -27.788935 10.848110 -13.003086 -10.389352 -2.599791 28.033071 10.092881 7.431089 62.930821 3.397943 12.211983 -18.367323 29.993578 -4.207985 18.597870 6.612045 -13.100931 
0.633548 0.832702 1.052681 93.377945 -0.708877 82.177403 2.404489 0.079191 6.618370 -2.307019 -10.006258 2.747512 0.577512 1.077087 -14.932572 0.000000 -0.000000 0.000000 -2.378025 -3.707059 6.403146 -0.819527 -3.002993 6.136802 1.376645 -6.633166 -20.028254 0.000000 -0.000000 0.000000 -1.141608 2.745019 1.306849 -1.012268 -4.105977 13.226773 -2.848206 0.464774 0.664681 7.195701 -0.009343 6.182068 8.198974 -8.624157 2.913166 -31.262876 -9.504836 7.370327 -51.251138 -7.679671 14.274081 6.694950 -27.692663 10.669676 -12.606730 -10.555513 -2.455860 27.946261 10.500383 7.702358 62.807387 3.695435 12.231366 -17.886178 30.068133 -3.630735 18.430535 6.849531 -12.803844 
0.632490 0.832657 1.053141 93.466605 -0.601130 81.884034 2.547343 0.575484 6.570593 -2.003827 -8.846136 1.477697 1.247141 0.802394 -16.756313 0.000000 -0.000000 0.000000 -2.269438 -3.676421 6.615744 -0.637336 -3.095272 3.870836 1.444898 -5.769626 -20.707442 0.000000 -0.000000 0.000000 -0.804215 2.732475 1.739837 -1.225831 -4.115886 13.413795 -2.858041 0.520157 0.780850 7.282312 0.048330 6.280250 8.633788 -8.744128 2.400145 -31.421334 -9.883985 7.432307 -50.994258 -7.921814 14.129925 6.679607 -27.515419 10.283025 -12.652992 -10.721152 -1.929013 28.110280 10.929824 7.812916 62.489152 4.016304 12.162451 -17.493289 30.043632 -3.314239 18.461712 6.989300 -12.536442 
0.629706 0.832499 1.054547 93.613590 -0.562315 81.793065 2.783867 1.020757 5.726666 -1.464318 -8.561697 -4.001584 -0.381406 -0.929315 -15.233727 0.000000 -0.000000 0.000000 -2.188348 -4.065723 5.089931 -0.626295 -3.969529 0.141290 1.617879 -5.211743 -19.699836 0.000000 -0.000000 0.000000 -0.605004 2.669565 2.436827 -1.444213 -4.111002 13.505272 -2.718853 0.550872 0.617177 7.227508 0.268398 6.326011 9.203311 -8.784638 2.108698 -31.804119 -10.288485 7.603089 -50.668133 -8.078422 14.264916 7.049005 -27.505578 9.572010 -12.446705 -10.955669 -1.572371 28.234225 11.295354 8.320528 62.187990 4.756416 12.114767 -17.424425 29.880676 -3.399770 18.307455 7.236213 -12.428613 
